<svg width="1600" height="635" viewBox="0 0 1600 635" fill="none" xmlns="http://www.w3.org/2000/svg">
<path d="M156.906 566.912H147.157V497.796H123V489.197H180.954V497.796H156.906V566.912Z" fill="black"/>
<path d="M306.793 566.912H263.571V489.197H306.793V497.796H273.32V522.068H304.843V530.558H273.32V558.313H306.793V566.912Z" fill="black"/>
<path d="M427.865 496.707C423.749 496.707 420.03 497.433 416.708 498.884C413.386 500.263 410.569 502.331 408.258 505.088C405.947 507.773 404.178 511.075 402.95 514.993C401.723 518.839 401.109 523.193 401.109 528.054C401.109 534.44 402.084 539.991 404.033 544.707C406.056 549.424 409.016 553.052 412.916 555.592C416.888 558.132 421.835 559.401 427.757 559.401C431.151 559.401 434.365 559.111 437.398 558.531C440.431 557.95 443.392 557.224 446.281 556.354V564.844C443.392 565.932 440.395 566.73 437.29 567.238C434.256 567.746 430.609 568 426.349 568C418.477 568 411.905 566.367 406.633 563.102C401.361 559.837 397.389 555.193 394.717 549.17C392.118 543.147 390.818 536.073 390.818 527.946C390.818 522.068 391.612 516.698 393.201 511.837C394.862 506.975 397.245 502.766 400.35 499.211C403.528 495.655 407.428 492.934 412.05 491.048C416.672 489.088 421.98 488.109 427.974 488.109C431.946 488.109 435.773 488.508 439.456 489.306C443.139 490.104 446.425 491.229 449.314 492.68L445.414 500.952C443.031 499.864 440.359 498.884 437.398 498.014C434.509 497.143 431.332 496.707 427.865 496.707Z" fill="black"/>
<path d="M593.261 566.912H583.512V530.667H543.865V566.912H534.115V489.197H543.865V522.068H583.512V489.197H593.261V566.912Z" fill="black"/>
<path d="M746.674 566.912H735.3L693.919 502.367H693.486C693.558 503.673 693.63 505.125 693.703 506.721C693.847 508.317 693.955 510.059 694.028 511.946C694.1 513.76 694.172 515.646 694.244 517.605C694.316 519.565 694.353 521.524 694.353 523.483V566.912H685.361V489.197H696.627L737.9 553.524H738.333C738.261 552.653 738.189 551.456 738.116 549.932C738.044 548.336 737.972 546.594 737.9 544.707C737.827 542.748 737.755 540.753 737.683 538.721C737.611 536.689 737.575 534.803 737.575 533.061V489.197H746.674V566.912Z" fill="black"/>
<path d="M906.105 527.946C906.105 533.968 905.346 539.447 903.83 544.381C902.313 549.243 900.038 553.451 897.005 557.007C894.044 560.562 890.325 563.283 885.848 565.17C881.443 567.057 876.315 568 870.465 568C864.399 568 859.127 567.057 854.65 565.17C850.172 563.211 846.453 560.49 843.492 557.007C840.531 553.451 838.329 549.206 836.884 544.272C835.44 539.338 834.718 533.859 834.718 527.837C834.718 519.855 836.018 512.889 838.617 506.939C841.217 500.989 845.153 496.345 850.425 493.007C855.769 489.669 862.485 488 870.574 488C878.301 488 884.801 489.669 890.072 493.007C895.344 496.272 899.316 500.916 901.988 506.939C904.733 512.889 906.105 519.891 906.105 527.946ZM845.009 527.946C845.009 534.476 845.911 540.1 847.717 544.816C849.522 549.533 852.303 553.161 856.058 555.701C859.886 558.24 864.688 559.51 870.465 559.51C876.315 559.51 881.081 558.24 884.764 555.701C888.52 553.161 891.3 549.533 893.106 544.816C894.911 540.1 895.814 534.476 895.814 527.946C895.814 518.15 893.792 510.494 889.747 504.98C885.703 499.392 879.312 496.599 870.574 496.599C864.724 496.599 859.886 497.868 856.058 500.408C852.303 502.875 849.522 506.467 847.717 511.184C845.911 515.828 845.009 521.415 845.009 527.946Z" fill="black"/>
<path d="M994.201 566.912V489.197H1003.95V558.204H1037.75V566.912H994.201Z" fill="black"/>
<path d="M1187.33 527.946C1187.33 533.968 1186.58 539.447 1185.06 544.381C1183.54 549.243 1181.27 553.451 1178.23 557.007C1175.27 560.562 1171.55 563.283 1167.08 565.17C1162.67 567.057 1157.54 568 1151.69 568C1145.63 568 1140.36 567.057 1135.88 565.17C1131.4 563.211 1127.68 560.49 1124.72 557.007C1121.76 553.451 1119.56 549.206 1118.11 544.272C1116.67 539.338 1115.95 533.859 1115.95 527.837C1115.95 519.855 1117.25 512.889 1119.85 506.939C1122.45 500.989 1126.38 496.345 1131.65 493.007C1137 489.669 1143.71 488 1151.8 488C1159.53 488 1166.03 489.669 1171.3 493.007C1176.57 496.272 1180.55 500.916 1183.22 506.939C1185.96 512.889 1187.33 519.891 1187.33 527.946ZM1126.24 527.946C1126.24 534.476 1127.14 540.1 1128.95 544.816C1130.75 549.533 1133.53 553.161 1137.29 555.701C1141.11 558.24 1145.92 559.51 1151.69 559.51C1157.54 559.51 1162.31 558.24 1165.99 555.701C1169.75 553.161 1172.53 549.533 1174.33 544.816C1176.14 540.1 1177.04 534.476 1177.04 527.946C1177.04 518.15 1175.02 510.494 1170.98 504.98C1166.93 499.392 1160.54 496.599 1151.8 496.599C1145.95 496.599 1141.11 497.868 1137.29 500.408C1133.53 502.875 1130.75 506.467 1128.95 511.184C1127.14 515.828 1126.24 521.415 1126.24 527.946Z" fill="black"/>
<path d="M1309.01 525.878H1335.77V563.973C1331.58 565.351 1327.35 566.367 1323.09 567.02C1318.83 567.673 1313.99 568 1308.58 568C1300.56 568 1293.81 566.404 1288.32 563.211C1282.83 559.946 1278.64 555.338 1275.75 549.388C1272.94 543.365 1271.53 536.254 1271.53 528.054C1271.53 519.927 1273.12 512.889 1276.3 506.939C1279.47 500.989 1284.02 496.381 1289.95 493.116C1295.94 489.778 1303.16 488.109 1311.61 488.109C1315.94 488.109 1320.02 488.508 1323.85 489.306C1327.75 490.104 1331.36 491.229 1334.68 492.68L1331 501.17C1328.26 499.937 1325.15 498.884 1321.69 498.014C1318.29 497.143 1314.75 496.707 1311.07 496.707C1304.93 496.707 1299.66 497.977 1295.25 500.517C1290.85 503.057 1287.49 506.685 1285.18 511.401C1282.87 516.045 1281.71 521.596 1281.71 528.054C1281.71 534.222 1282.69 539.701 1284.64 544.49C1286.66 549.206 1289.8 552.907 1294.06 555.592C1298.32 558.204 1303.92 559.51 1310.85 559.51C1313.16 559.51 1315.19 559.438 1316.92 559.293C1318.72 559.075 1320.35 558.821 1321.79 558.531C1323.31 558.24 1324.72 557.95 1326.02 557.66V534.585H1309.01V525.878Z" fill="black"/>
<path d="M1445.34 527.401L1465.49 489.197H1476L1450.22 536.762V566.912H1440.47V537.197L1414.69 489.197H1425.3L1445.34 527.401Z" fill="black"/>
<path d="M296.369 314.025C271.685 320.695 244.486 324.389 215.914 324.389C154.03 324.389 98.5851 307.059 61.1881 279.697V396.658L35.4385 381.954V306.335H50.0299V270.765C26.0909 249.756 12 224.01 12 196.195C12 125.395 103.295 68 215.914 68C265.725 68 311.364 79.2279 346.778 97.8776L309.438 135.493L309.497 135.552L192.916 244.075V174.572L254.239 116.914C241.5 115.231 228.144 114.335 214.381 114.335C126.318 114.335 54.9293 150.985 54.9293 196.195C54.9293 241.404 126.318 278.054 214.381 278.054C302.443 278.054 373.832 241.404 373.832 196.195C373.832 176.641 360.478 158.689 338.197 144.611L370.2 112.371C401.122 134.846 419.828 164.147 419.828 196.195C419.828 243.307 379.403 284.483 319.171 306.763L340.143 325.24V412.412C298.372 430.966 191.481 456.944 98.096 412.412V329.441L140.154 343.094V374.602C172.198 382.654 248.302 393.927 296.369 374.602V314.025Z" fill="#0335FF"/>
<path d="M606.235 349.582L651.899 363.271C632.745 391.36 602.81 405.405 562.094 405.405C529.622 405.405 504.253 397.405 485.988 381.405C467.849 365.405 458.78 344.368 458.78 318.293C458.78 291.745 468.166 269.582 486.939 251.804C505.712 234.027 529.622 225.138 558.669 225.138C579.725 225.138 597.927 230.115 613.275 240.071C628.623 250.027 639.278 262.412 645.239 277.227C651.201 292.042 654.182 308.575 654.182 326.827H517.001C517.889 342.471 523.153 353.553 532.793 360.071C542.56 366.59 552.834 369.849 563.616 369.849C577.695 369.849 591.902 363.094 606.235 349.582ZM595.009 296.249C593.614 286.649 589.555 278.471 582.833 271.716C576.237 264.96 567.167 261.582 555.625 261.582C534.061 261.582 521.504 273.138 517.952 296.249H595.009Z" fill="black"/>
<path d="M670.468 401.494V342.294H713.468C713.849 350.353 717.844 356.812 725.455 361.671C733.065 366.412 742.452 368.783 753.614 368.783C763.254 368.783 770.738 367.242 776.065 364.16C781.519 360.96 784.247 356.931 784.247 352.071C784.247 347.568 781.773 344.071 776.826 341.582C771.879 339.094 762.176 336.723 747.716 334.471C717.908 329.968 696.408 323.153 683.216 314.027C670.024 304.782 663.429 292.575 663.429 277.404C663.429 263.182 669.644 251.212 682.074 241.493C694.505 231.656 710.995 226.738 731.543 226.738C748.16 226.738 763.698 229.582 778.158 235.271V229.404H820.207V279.36H778.158C774.353 267.39 760.907 261.404 737.822 261.404C720.825 261.404 712.327 265.79 712.327 274.56C712.327 277.879 714.039 280.427 717.464 282.204C721.015 283.864 729.958 285.879 744.291 288.249C766.996 291.923 783.993 295.597 795.282 299.271C806.571 302.945 815.577 309.049 822.299 317.582C829.149 325.997 832.574 336.131 832.574 347.982C832.574 364.812 826.105 378.62 813.167 389.405C800.356 400.072 782.154 405.405 758.561 405.405C736.617 405.405 721.586 401.257 713.468 392.96V401.494H670.468Z" fill="black"/>
<path d="M840.298 401.494V361.849H869.98V193.849H840.298V154.204H928.581V310.471L991.939 262.293H952.935V229.404H1064.24V264.249H1045.78L991.939 307.271L1041.03 361.849H1066.52V401.494H1010.01L928.581 310.471V363.805H950.842V401.494H840.298Z" fill="black"/>
<path d="M1155.49 405.405C1128.35 405.405 1105.39 397.405 1086.61 381.405C1067.97 365.286 1058.65 343.242 1058.65 315.271C1058.65 287.301 1067.97 265.316 1086.61 249.315C1105.39 233.197 1128.35 225.138 1155.49 225.138C1182.76 225.138 1205.72 233.197 1224.37 249.315C1243.01 265.316 1252.34 287.301 1252.34 315.271C1252.34 342.886 1243.08 364.812 1224.56 381.049C1206.16 397.286 1183.14 405.405 1155.49 405.405ZM1155.3 362.738C1166.21 362.738 1175.02 358.827 1181.75 351.005C1188.6 343.182 1192.02 330.916 1192.02 314.205C1192.02 299.508 1188.72 288.071 1182.13 279.893C1175.53 271.597 1166.59 267.449 1155.3 267.449C1131.07 267.449 1118.96 283.804 1118.96 316.516C1118.96 329.908 1121.94 340.99 1127.9 349.76C1133.99 358.412 1143.12 362.738 1155.3 362.738Z" fill="black"/>
<path d="M1261.96 401.494V361.849H1290.88V193.849H1261.96V154.204H1349.67V361.849H1376.12V401.494H1261.96Z" fill="black"/>
<path d="M1588 361.849V401.494H1499.53V387.983C1483.67 398.649 1466.93 403.983 1449.3 403.983C1431.03 403.983 1415.24 399.123 1401.92 389.405C1388.73 379.686 1382.13 366.649 1382.13 350.294C1382.13 333.819 1389.11 320.012 1403.06 308.871C1417.02 297.73 1435.03 292.16 1457.1 292.16C1469.4 292.16 1483.54 295.064 1499.53 300.871V290.382C1499.53 281.612 1496.36 274.441 1490.01 268.871C1483.67 263.182 1475.17 260.338 1464.52 260.338C1451.33 260.338 1440.04 264.841 1430.65 273.849L1383.28 265.849C1396.97 238.708 1426.72 225.138 1472.51 225.138C1490.27 225.138 1504.98 227.034 1516.65 230.826C1528.32 234.501 1537.01 239.301 1542.72 245.227C1548.43 251.153 1552.42 257.671 1554.7 264.782C1557.11 271.775 1558.32 283.212 1558.32 299.093V361.849H1588ZM1499.53 337.849C1485.32 329.553 1473.97 325.405 1465.47 325.405C1458.75 325.405 1452.6 327.242 1447.01 330.916C1441.56 334.59 1438.83 339.923 1438.83 346.916C1438.83 353.197 1441.05 358.59 1445.49 363.094C1449.93 367.597 1455.64 369.849 1462.62 369.849C1473.52 369.849 1485.83 363.864 1499.53 351.894V337.849Z" fill="black"/>
</svg>
